<svg width="1600" height="900" viewBox="0 0 1600 900" fill="none" xmlns="http://www.w3.org/2000/svg">
  <rect width="1600" height="900" fill="#1E1E1E"/>
  <circle cx="1270" cy="145" r="240" fill="#F47C20" fill-opacity="0.35"/>
  <circle cx="220" cy="760" r="270" fill="#F47C20" fill-opacity="0.22"/>
  <rect x="180" y="140" width="430" height="520" rx="32" fill="#2C2C2C"/>
  <rect x="215" y="175" width="360" height="80" rx="16" fill="#F47C20"/>
  <rect x="215" y="285" width="360" height="28" rx="14" fill="#F2F2F2" fill-opacity="0.9"/>
  <rect x="215" y="331" width="284" height="28" rx="14" fill="#F2F2F2" fill-opacity="0.45"/>
  <rect x="215" y="394" width="360" height="210" rx="24" fill="#FFFFFF"/>
  <rect x="760" y="178" width="520" height="310" rx="40" fill="#F7F2EE"/>
  <rect x="825" y="240" width="390" height="40" rx="20" fill="#F47C20"/>
  <rect x="825" y="305" width="300" height="26" rx="13" fill="#A6A6A6"/>
  <rect x="825" y="352" width="350" height="92" rx="24" fill="#1E1E1E"/>
  <rect x="940" y="540" width="220" height="185" rx="30" fill="#F47C20"/>
  <rect x="690" y="560" width="190" height="165" rx="30" fill="#FFFFFF" fill-opacity="0.9"/>
</svg>
